<mxfile host="app.diagrams.net" modified="2024-01-18T15:08:11.042Z" agent="Mozilla/5.0 (Macintosh; Intel Mac OS X 10_15_7) AppleWebKit/537.36 (KHTML, like Gecko) Chrome/120.0.0.0 Safari/537.36" etag="XF_9BKrj_gzmRO4Dr0bx" version="22.1.21" type="github">
  <diagram name="Page-1" id="2YBvvXClWsGukQMizWep">
    <mxGraphModel dx="681" dy="433" grid="1" gridSize="10" guides="1" tooltips="1" connect="1" arrows="1" fold="1" page="1" pageScale="1" pageWidth="850" pageHeight="1100" math="0" shadow="0">
      <root>
        <mxCell id="0" />
        <mxCell id="1" parent="0" />
        <mxCell id="wDC7j1Ii6SPYEv_Nfl-J-1" value="" style="shape=umlLifeline;perimeter=lifelinePerimeter;whiteSpace=wrap;html=1;container=1;dropTarget=0;collapsible=0;recursiveResize=0;outlineConnect=0;portConstraint=eastwest;newEdgeStyle={&quot;curved&quot;:0,&quot;rounded&quot;:0};participant=umlActor;" vertex="1" parent="1">
          <mxGeometry x="310" y="80" width="20" height="300" as="geometry" />
        </mxCell>
        <mxCell id="wDC7j1Ii6SPYEv_Nfl-J-14" value="" style="html=1;points=[[0,0,0,0,5],[0,1,0,0,-5],[1,0,0,0,5],[1,1,0,0,-5]];perimeter=orthogonalPerimeter;outlineConnect=0;targetShapes=umlLifeline;portConstraint=eastwest;newEdgeStyle={&quot;curved&quot;:0,&quot;rounded&quot;:0};" vertex="1" parent="wDC7j1Ii6SPYEv_Nfl-J-1">
          <mxGeometry x="5" y="50" width="10" height="240" as="geometry" />
        </mxCell>
        <mxCell id="wDC7j1Ii6SPYEv_Nfl-J-2" value="User" style="text;html=1;align=center;verticalAlign=middle;resizable=0;points=[];autosize=1;strokeColor=none;fillColor=none;" vertex="1" parent="1">
          <mxGeometry x="295" y="50" width="50" height="30" as="geometry" />
        </mxCell>
        <mxCell id="wDC7j1Ii6SPYEv_Nfl-J-3" value="" style="shape=umlLifeline;perimeter=lifelinePerimeter;whiteSpace=wrap;html=1;container=1;dropTarget=0;collapsible=0;recursiveResize=0;outlineConnect=0;portConstraint=eastwest;newEdgeStyle={&quot;curved&quot;:0,&quot;rounded&quot;:0};participant=umlActor;" vertex="1" parent="1">
          <mxGeometry x="385" y="80" width="20" height="300" as="geometry" />
        </mxCell>
        <mxCell id="wDC7j1Ii6SPYEv_Nfl-J-15" value="" style="html=1;points=[[0,0,0,0,5],[0,1,0,0,-5],[1,0,0,0,5],[1,1,0,0,-5]];perimeter=orthogonalPerimeter;outlineConnect=0;targetShapes=umlLifeline;portConstraint=eastwest;newEdgeStyle={&quot;curved&quot;:0,&quot;rounded&quot;:0};" vertex="1" parent="wDC7j1Ii6SPYEv_Nfl-J-3">
          <mxGeometry x="5" y="50" width="10" height="240" as="geometry" />
        </mxCell>
        <mxCell id="wDC7j1Ii6SPYEv_Nfl-J-4" value="Editor" style="text;html=1;align=center;verticalAlign=middle;resizable=0;points=[];autosize=1;strokeColor=none;fillColor=none;" vertex="1" parent="1">
          <mxGeometry x="370" y="50" width="50" height="30" as="geometry" />
        </mxCell>
        <mxCell id="wDC7j1Ii6SPYEv_Nfl-J-7" value="" style="shape=umlLifeline;perimeter=lifelinePerimeter;whiteSpace=wrap;html=1;container=1;dropTarget=0;collapsible=0;recursiveResize=0;outlineConnect=0;portConstraint=eastwest;newEdgeStyle={&quot;curved&quot;:0,&quot;rounded&quot;:0};participant=umlActor;" vertex="1" parent="1">
          <mxGeometry x="455" y="80" width="20" height="300" as="geometry" />
        </mxCell>
        <mxCell id="wDC7j1Ii6SPYEv_Nfl-J-16" value="" style="html=1;points=[[0,0,0,0,5],[0,1,0,0,-5],[1,0,0,0,5],[1,1,0,0,-5]];perimeter=orthogonalPerimeter;outlineConnect=0;targetShapes=umlLifeline;portConstraint=eastwest;newEdgeStyle={&quot;curved&quot;:0,&quot;rounded&quot;:0};" vertex="1" parent="wDC7j1Ii6SPYEv_Nfl-J-7">
          <mxGeometry x="5" y="50" width="10" height="240" as="geometry" />
        </mxCell>
        <mxCell id="wDC7j1Ii6SPYEv_Nfl-J-8" value="Admin" style="text;html=1;align=center;verticalAlign=middle;resizable=0;points=[];autosize=1;strokeColor=none;fillColor=none;" vertex="1" parent="1">
          <mxGeometry x="435" y="50" width="60" height="30" as="geometry" />
        </mxCell>
        <mxCell id="wDC7j1Ii6SPYEv_Nfl-J-9" value="Backend" style="shape=umlLifeline;perimeter=lifelinePerimeter;whiteSpace=wrap;html=1;container=1;dropTarget=0;collapsible=0;recursiveResize=0;outlineConnect=0;portConstraint=eastwest;newEdgeStyle={&quot;curved&quot;:0,&quot;rounded&quot;:0};" vertex="1" parent="1">
          <mxGeometry x="530" y="60" width="100" height="320" as="geometry" />
        </mxCell>
        <mxCell id="wDC7j1Ii6SPYEv_Nfl-J-10" value="Homepage" style="shape=umlLifeline;perimeter=lifelinePerimeter;whiteSpace=wrap;html=1;container=1;dropTarget=0;collapsible=0;recursiveResize=0;outlineConnect=0;portConstraint=eastwest;newEdgeStyle={&quot;curved&quot;:0,&quot;rounded&quot;:0};" vertex="1" parent="1">
          <mxGeometry x="820" y="60" width="100" height="310" as="geometry" />
        </mxCell>
        <mxCell id="wDC7j1Ii6SPYEv_Nfl-J-11" value="Login Form" style="shape=umlLifeline;perimeter=lifelinePerimeter;whiteSpace=wrap;html=1;container=1;dropTarget=0;collapsible=0;recursiveResize=0;outlineConnect=0;portConstraint=eastwest;newEdgeStyle={&quot;curved&quot;:0,&quot;rounded&quot;:0};" vertex="1" parent="1">
          <mxGeometry x="670" y="60" width="100" height="310" as="geometry" />
        </mxCell>
        <mxCell id="wDC7j1Ii6SPYEv_Nfl-J-17" value="" style="html=1;verticalAlign=bottom;endArrow=block;curved=0;rounded=0;" edge="1" parent="1" source="wDC7j1Ii6SPYEv_Nfl-J-14">
          <mxGeometry x="-0.0011" width="80" relative="1" as="geometry">
            <mxPoint x="320.21014492753625" y="150" as="sourcePoint" />
            <mxPoint x="390" y="150" as="targetPoint" />
            <mxPoint as="offset" />
          </mxGeometry>
        </mxCell>
        <mxCell id="wDC7j1Ii6SPYEv_Nfl-J-19" value="" style="edgeStyle=orthogonalEdgeStyle;rounded=0;orthogonalLoop=1;jettySize=auto;html=1;curved=0;" edge="1" parent="1" source="wDC7j1Ii6SPYEv_Nfl-J-15" target="wDC7j1Ii6SPYEv_Nfl-J-16">
          <mxGeometry relative="1" as="geometry">
            <Array as="points">
              <mxPoint x="430" y="150" />
              <mxPoint x="430" y="150" />
            </Array>
          </mxGeometry>
        </mxCell>
        <mxCell id="wDC7j1Ii6SPYEv_Nfl-J-22" value="&lt;font style=&quot;font-size: 8px;&quot;&gt;open login interface&lt;/font&gt;" style="html=1;verticalAlign=bottom;endArrow=block;curved=0;rounded=0;" edge="1" parent="1">
          <mxGeometry width="80" relative="1" as="geometry">
            <mxPoint x="470" y="151" as="sourcePoint" />
            <mxPoint x="579.5000000000001" y="151" as="targetPoint" />
            <mxPoint as="offset" />
          </mxGeometry>
        </mxCell>
      </root>
    </mxGraphModel>
  </diagram>
</mxfile>
